<svg width="31" height="37" viewBox="0 0 31 37" fill="none" xmlns="http://www.w3.org/2000/svg">
<path d="M17.7728 26.1003L10.5672 30.2644C9.01486 31.1603 7.64372 30.5625 7.12678 30.2644C6.60985 29.9663 5.40576 29.0751 5.40576 27.2817V8.86677C5.40576 7.07181 6.60985 6.18221 7.12678 5.8841C7.44041 5.70271 8.07082 5.40933 8.86514 5.40933C9.37734 5.40933 9.9589 5.53236 10.5672 5.8841L17.672 9.98981L22.5781 6.57812L13.2701 1.19953C10.4995 -0.399845 7.19298 -0.399845 4.4239 1.19953C1.65325 2.80049 0 5.66643 0 8.86834V27.2817C0 30.482 1.65325 33.3496 4.4239 34.9505C5.80923 35.7502 7.32694 36.1508 8.84622 36.1508C10.3671 36.1508 11.8848 35.7502 13.2701 34.9505L22.679 29.5136L17.7728 26.1003Z" fill="white"/>
<path d="M26.0846 17.7548L23.2714 19.7122L18.3652 23.1239L17.8467 23.4851L18.4661 23.9157L23.3722 27.3274L26.0861 29.2138C28.0877 30.6066 30.8284 29.1728 30.8284 26.7328V20.2359C30.8252 17.7958 28.0861 16.362 26.0846 17.7548Z" fill="url(#paint0_linear_819_1536)"/>
<path d="M30.8254 9.28616V20.2358C30.8254 17.7957 28.0846 16.3619 26.0831 17.7547L23.2699 19.7121L18.3637 23.1238L17.8452 23.485L13.5411 20.4913C11.8138 19.2894 11.8138 16.731 13.5411 15.5291L18.3637 12.1742L23.2699 8.7625L26.0831 6.80508C28.0862 5.41232 30.8254 6.84608 30.8254 9.28616Z" fill="url(#paint1_linear_819_1536)"/>
<defs>
<linearGradient id="paint0_linear_819_1536" x1="24.0788" y1="17.1198" x2="24.7709" y2="29.7558" gradientUnits="userSpaceOnUse">
<stop stop-color="#FB5B5A"/>
<stop offset="1" stop-color="#F52A73"/>
</linearGradient>
<linearGradient id="paint1_linear_819_1536" x1="19.9913" y1="8.46121" x2="23.3884" y2="19.8385" gradientUnits="userSpaceOnUse">
<stop stop-color="#FB5B5A"/>
<stop offset="1" stop-color="#F52A73"/>
</linearGradient>
</defs>
</svg>
